<svg width="21" height="21" viewBox="0 0 21 21" fill="none" xmlns="http://www.w3.org/2000/svg">
<g opacity="0.5" clip-path="url(#clip0_17_285)">
<path d="M14.4375 1.3125C14.7856 1.3125 15.1194 1.45078 15.3656 1.69692C15.6117 1.94306 15.75 2.2769 15.75 2.625V18.375C15.75 18.7231 15.6117 19.0569 15.3656 19.3031C15.1194 19.5492 14.7856 19.6875 14.4375 19.6875H6.5625C6.2144 19.6875 5.88056 19.5492 5.63442 19.3031C5.38828 19.0569 5.25 18.7231 5.25 18.375V2.625C5.25 2.2769 5.38828 1.94306 5.63442 1.69692C5.88056 1.45078 6.2144 1.3125 6.5625 1.3125H14.4375ZM6.5625 0C5.86631 0 5.19863 0.276562 4.70634 0.768845C4.21406 1.26113 3.9375 1.92881 3.9375 2.625V18.375C3.9375 19.0712 4.21406 19.7389 4.70634 20.2312C5.19863 20.7234 5.86631 21 6.5625 21H14.4375C15.1337 21 15.8014 20.7234 16.2937 20.2312C16.7859 19.7389 17.0625 19.0712 17.0625 18.375V2.625C17.0625 1.92881 16.7859 1.26113 16.2937 0.768845C15.8014 0.276562 15.1337 0 14.4375 0L6.5625 0Z" fill="black"/>
<path d="M10.5 18.375C10.8481 18.375 11.1819 18.2367 11.4281 17.9906C11.6742 17.7444 11.8125 17.4106 11.8125 17.0625C11.8125 16.7144 11.6742 16.3806 11.4281 16.1344C11.1819 15.8883 10.8481 15.75 10.5 15.75C10.1519 15.75 9.81806 15.8883 9.57192 16.1344C9.32578 16.3806 9.1875 16.7144 9.1875 17.0625C9.1875 17.4106 9.32578 17.7444 9.57192 17.9906C9.81806 18.2367 10.1519 18.375 10.5 18.375Z" fill="black"/>
</g>
<defs>
<clipPath id="clip0_17_285">
<rect width="21" height="21" fill="white"/>
</clipPath>
</defs>
</svg>
