<svg width="108" height="108" viewBox="0 0 108 108" fill="none" xmlns="http://www.w3.org/2000/svg">
<path fill-rule="evenodd" clip-rule="evenodd" d="M54 0C49.3425 0 41.5598 1.78875 34.236 3.78C26.7435 5.805 19.1903 8.20125 14.7488 9.6525C12.8918 10.2657 11.2455 11.3904 9.99893 12.8972C8.75238 14.4041 7.95618 16.232 7.70179 18.171C3.67879 48.3908 13.014 70.7873 24.3405 85.6035C29.1437 91.9415 34.8707 97.5229 41.3303 102.161C43.9358 104.004 46.3523 105.415 48.4043 106.38C50.2943 107.271 52.326 108 54 108C55.674 108 57.699 107.271 59.5958 106.38C62.0696 105.178 64.4361 103.766 66.6698 102.161C73.1295 97.523 78.8565 91.9416 83.6595 85.6035C94.986 70.7873 104.321 48.3908 100.298 18.171C100.044 16.2311 99.2484 14.4021 98.0019 12.8941C96.7553 11.3861 95.1088 10.2602 93.2513 9.64575C86.8037 7.53174 80.3061 5.57367 73.764 3.77325C66.4403 1.7955 58.6575 0 54 0ZM54 33.75C56.3911 33.7464 58.7064 34.5892 60.5356 36.1291C62.3649 37.669 63.5901 39.8066 63.9944 42.1633C64.3986 44.52 63.9557 46.9437 62.7442 49.0052C61.5327 51.0666 59.6307 52.6328 57.375 53.4263L59.9738 66.8587C60.0683 67.3473 60.0537 67.8507 59.9309 68.333C59.808 68.8152 59.5801 69.2643 59.2634 69.6481C58.9467 70.0319 58.549 70.341 58.0988 70.5531C57.6487 70.7652 57.1572 70.8751 56.6595 70.875H51.3405C50.8435 70.8741 50.3528 70.7634 49.9034 70.5509C49.4541 70.3384 49.0573 70.0292 48.7413 69.6455C48.4253 69.2618 48.198 68.8131 48.0755 68.3313C47.9531 67.8496 47.9386 67.3467 48.033 66.8587L50.625 53.4263C48.3694 52.6328 46.4674 51.0666 45.2559 49.0052C44.0443 46.9437 43.6015 44.52 44.0057 42.1633C44.4099 39.8066 45.6352 37.669 47.4644 36.1291C49.2937 34.5892 51.6089 33.7464 54 33.75Z" fill="#4BAC75"/>
</svg>
