<svg width="18" height="18" viewBox="0 0 18 18" fill="none" xmlns="http://www.w3.org/2000/svg">
<path d="M3.2274 16.8834L3.67461 16.6598L3.67461 16.6598L3.2274 16.8834ZM14.7726 16.8834L15.2198 17.107L15.2198 17.107L14.7726 16.8834ZM1.23222 7.21429H16.7678V6.21429H1.23222V7.21429ZM16.5 6.94651V7.44795H17.5V6.94651H16.5ZM14.5839 16.5H3.41611V17.5H14.5839V16.5ZM1.5 7.44795V6.94651H0.5V7.44795H1.5ZM3.67461 16.6598C2.24453 13.7996 1.5 10.6457 1.5 7.44795H0.5C0.5 10.801 1.28067 14.1079 2.78019 17.107L3.67461 16.6598ZM3.41611 16.5C3.52558 16.5 3.62566 16.5619 3.67461 16.6598L2.78019 17.107C2.90062 17.3478 3.14681 17.5 3.41611 17.5V16.5ZM14.3254 16.6598C14.3743 16.5619 14.4744 16.5 14.5839 16.5V17.5C14.8532 17.5 15.0994 17.3478 15.2198 17.107L14.3254 16.6598ZM16.5 7.44795C16.5 10.6457 15.7555 13.7996 14.3254 16.6598L15.2198 17.107C16.7193 14.1079 17.5 10.801 17.5 7.44795H16.5ZM16.7678 7.21429C16.6199 7.21429 16.5 7.0944 16.5 6.94651H17.5C17.5 6.54212 17.1722 6.21429 16.7678 6.21429V7.21429ZM1.23222 6.21429C0.827827 6.21429 0.5 6.54211 0.5 6.94651H1.5C1.5 7.0944 1.38011 7.21429 1.23222 7.21429V6.21429ZM4.85732 6.97153L8.28589 1.25725L7.4284 0.742752L3.99983 6.45704L4.85732 6.97153ZM9.71411 1.25725L13.1427 6.97153L14.0002 6.45704L10.5716 0.742752L9.71411 1.25725Z" fill="white"/>
</svg>
