<svg width="58" height="58" viewBox="0 0 58 58" fill="none" xmlns="http://www.w3.org/2000/svg">
<path d="M19.3333 45.9167C20.6152 45.9167 21.8446 45.4074 22.751 44.501C23.6574 43.5946 24.1667 42.3652 24.1667 41.0833C24.1667 39.8015 23.6574 38.5721 22.751 37.6657C21.8446 36.7592 20.6152 36.25 19.3333 36.25C18.0515 36.25 16.8221 36.7592 15.9157 37.6657C15.0092 38.5721 14.5 39.8015 14.5 41.0833C14.5 42.3652 15.0092 43.5946 15.9157 44.501C16.8221 45.4074 18.0515 45.9167 19.3333 45.9167V45.9167Z" stroke="white" stroke-width="3.5" stroke-miterlimit="1.5" stroke-linecap="round" stroke-linejoin="round"/>
<path d="M43.5003 45.9167C44.7822 45.9167 46.0116 45.4074 46.918 44.501C47.8244 43.5946 48.3337 42.3652 48.3337 41.0833C48.3337 39.8015 47.8244 38.5721 46.918 37.6657C46.0116 36.7592 44.7822 36.25 43.5003 36.25C42.2184 36.25 40.9891 36.7592 40.0826 37.6657C39.1762 38.5721 38.667 39.8015 38.667 41.0833C38.667 42.3652 39.1762 43.5946 40.0826 44.501C40.9891 45.4074 42.2184 45.9167 43.5003 45.9167V45.9167Z" stroke="white" stroke-width="3.5" stroke-miterlimit="1.5" stroke-linecap="round" stroke-linejoin="round"/>
<path d="M24.2878 41.0833H36.2503V15.95C36.2503 15.5654 36.0976 15.1966 35.8256 14.9247C35.5537 14.6528 35.1849 14.5 34.8003 14.5H2.41699" stroke="white" stroke-width="3.5" stroke-linecap="round"/>
<path d="M13.6542 41.0834H8.7C8.50958 41.0834 8.32103 41.0459 8.14511 40.973C7.96919 40.9002 7.80934 40.7934 7.6747 40.6587C7.54005 40.5241 7.43324 40.3642 7.36037 40.1883C7.28751 40.0124 7.25 39.8238 7.25 39.6334V27.7917" stroke="white" stroke-width="3.5" stroke-linecap="round"/>
<path d="M4.83398 21.75H14.5007" stroke="white" stroke-width="3.5" stroke-linecap="round" stroke-linejoin="round"/>
<path d="M36.25 21.75H49.8075C50.0878 21.7501 50.362 21.8314 50.5971 21.9841C50.8321 22.1367 51.0179 22.3543 51.1318 22.6103L55.4577 32.3447C55.5401 32.5295 55.5829 32.7295 55.5833 32.9319V39.6333C55.5833 39.8237 55.5458 40.0123 55.473 40.1882C55.4001 40.3641 55.2933 40.524 55.1586 40.6586C55.024 40.7933 54.8641 40.9001 54.6882 40.973C54.5123 41.0458 54.3237 41.0833 54.1333 41.0833H49.5417" stroke="white" stroke-width="3.5" stroke-linecap="round"/>
<path d="M36.25 41.0833H38.6667" stroke="black" stroke-width="1.5" stroke-linecap="round"/>
</svg>
