<svg width="106" height="111" viewBox="0 0 106 111" fill="none" xmlns="http://www.w3.org/2000/svg">
<path d="M0 69.2217L19.7366 110.999H0V69.2217Z" fill="#169256"/>
<path d="M0 59.9716L24.1062 110.999H19.7366L0 69.2221V59.9716Z" fill="#169256"/>
<path d="M0 50.724L28.475 110.999H24.1062L0 59.9713V50.724Z" fill="#169256"/>
<path d="M0 41.4768L32.8438 111H28.475L0 50.7241V41.4768Z" fill="#169256"/>
<path d="M2.50622 37.533L37.2134 110.999H32.8438L0 41.4768V37.533H2.50622Z" fill="#169256"/>
<path d="M6.87468 37.533L41.5819 110.999H37.2131L2.50586 37.533H6.87468Z" fill="#169256"/>
<path d="M11.2438 37.533L45.951 110.999H41.5822L6.875 37.533H11.2438Z" fill="#169256"/>
<path d="M15.613 37.533L50.317 110.999H45.9513L11.2441 37.533H15.613Z" fill="#169256"/>
<path d="M19.9821 37.533L54.6893 110.999H50.3205L15.6133 37.533H19.9821Z" fill="#169256"/>
<path d="M24.3512 37.533L59.0584 110.999H54.6912L19.9824 37.533H24.3512Z" fill="#169256"/>
<path d="M28.7204 37.533L63.4276 110.999H59.0588L24.3516 37.533H28.7204Z" fill="#169256"/>
<path d="M33.0895 37.533L67.7967 110.999H63.4279L28.7207 37.533H33.0895Z" fill="#169256"/>
<path d="M37.4567 37.533L72.1639 110.999H67.7951L33.0879 37.533H37.4567Z" fill="#169256"/>
<path d="M41.8258 37.533L76.533 110.999H72.1642L37.457 37.533H41.8258Z" fill="#169256"/>
<path d="M46.2001 37.533L80.9073 110.999H76.5385L41.8281 37.533H46.2001Z" fill="#169256"/>
<path d="M50.5661 37.533L85.2733 110.999H80.9045L46.1973 37.533H50.5661Z" fill="#169256"/>
<path d="M54.9333 37.533L89.6404 110.999H85.2716L50.5645 37.533H54.9333Z" fill="#169256"/>
<path d="M59.3044 37.533L94.0084 110.999H89.6396L54.9355 37.533H59.3044Z" fill="#169256"/>
<path d="M63.6735 37.533L98.3776 110.999H94.0119L59.3047 37.533H63.6735Z" fill="#169256"/>
<path d="M68.0426 37.533L102.75 110.999H98.3779L63.6738 37.533H68.0426Z" fill="#169256"/>
<path d="M72.4118 37.533L104.949 106.41V110.999H102.752L68.043 37.533H72.4118Z" fill="#169256"/>
<path d="M76.7809 37.533L104.949 97.1625V106.41L72.4121 37.533H76.7809Z" fill="#169256"/>
<path d="M81.1501 37.533L104.949 87.9119V97.1625L76.7812 37.533H81.1501Z" fill="#169256"/>
<path d="M85.5192 37.533L104.949 78.6638V87.9112L81.1504 37.533H85.5192Z" fill="#169256"/>
<path d="M89.8915 37.533L104.952 69.4165V78.6638L85.5195 37.533H89.8915Z" fill="#169256"/>
<path d="M94.2575 37.533L104.95 60.166V69.4165L89.8887 37.533H94.2575Z" fill="#169256"/>
<path d="M98.6266 37.533L104.949 50.9187V60.1661L94.2578 37.533H98.6266Z" fill="#169256"/>
<path d="M104.947 50.9188L98.625 37.533H104.947V50.9188Z" fill="#169256"/>
<path d="M0.162109 37.533L52.31 80.0316L104.791 37.533" fill="white"/>
<path d="M0 110.835L52.3128 68.8304L104.949 110.835H0Z" fill="#169256"/>
<path d="M0.274752 38.3242L54.2241 0.0208331C54.2423 0.00729238 54.2643 0 54.2868 0C54.3094 0 54.3314 0.00729238 54.3496 0.0208331L105.067 38.325C105.085 38.3389 105.098 38.3579 105.104 38.3795C105.11 38.4011 105.11 38.4242 105.103 38.4455C105.096 38.4668 105.082 38.4854 105.064 38.4987C105.047 38.512 105.025 38.5192 105.003 38.5196H0.336755C0.314139 38.5195 0.292138 38.512 0.273925 38.4984C0.255712 38.4847 0.24223 38.4655 0.23542 38.4435C0.228609 38.4215 0.228833 38.3978 0.236043 38.3759C0.243252 38.3541 0.257083 38.3351 0.275542 38.3218L0.274752 38.3242Z" fill="#169256"/>
</svg>
