<svg width="29" height="29" viewBox="0 0 29 29" fill="none" xmlns="http://www.w3.org/2000/svg">
<g clip-path="url(#clip0_15_198)">
<path fill-rule="evenodd" clip-rule="evenodd" d="M7.96323 20.3504C9.60588 21.993 11.8338 22.9158 14.1568 22.9158C16.4799 22.9158 18.7078 21.993 20.3505 20.3504C21.9931 18.7077 22.9159 16.4798 22.916 14.1567C22.9159 11.8337 21.9931 9.60577 20.3505 7.96312C18.7078 6.32047 16.4799 5.39764 14.1568 5.39763C11.8338 5.39764 9.60588 6.32047 7.96323 7.96312C6.32058 9.60577 5.39775 11.8337 5.39775 14.1567C5.39775 16.4798 6.32058 18.7077 7.96323 20.3504ZM21.2353 7.07831C23.1126 8.95563 24.1673 11.5018 24.1673 14.1567C24.1673 16.8117 23.1126 19.3578 21.2353 21.2352C19.358 23.1125 16.8118 24.1671 14.1568 24.1671C11.5019 24.1671 8.95574 23.1125 7.07842 21.2352C5.20111 19.3578 4.14644 16.8117 4.14644 14.1567C4.14644 11.5018 5.20111 8.95563 7.07842 7.07831C8.95574 5.201 11.5019 4.14633 14.1568 4.14633C16.8118 4.14633 19.358 5.201 21.2353 7.07831ZM9.73283 13.5303C9.56669 13.5303 9.40735 13.5963 9.28987 13.7138C9.17239 13.8313 9.10639 13.9906 9.10639 14.1567C9.10639 14.3229 9.17239 14.4822 9.28987 14.5997C9.40735 14.7172 9.56669 14.7832 9.73283 14.7832L16.982 14.7823L14.5329 17.2314C14.4156 17.3488 14.3496 17.5079 14.3496 17.6738C14.3496 17.8398 14.4156 17.9989 14.5329 18.1162C14.6502 18.2336 14.8094 18.2995 14.9753 18.2995C15.1412 18.2995 15.3004 18.2336 15.4177 18.1162L18.9348 14.5991C19.0521 14.4818 19.118 14.3227 19.118 14.1567C19.118 13.9908 19.0521 13.8317 18.9348 13.7143L15.4177 10.1972C15.3004 10.0799 15.1412 10.014 14.9753 10.014C14.8094 10.014 14.6502 10.0799 14.5329 10.1972C14.4156 10.3146 14.3496 10.4737 14.3496 10.6396C14.3496 10.8056 14.4156 10.9647 14.5329 11.082L16.982 13.5312L9.73283 13.5303Z" fill="white"/>
</g>
<defs>
<clipPath id="clip0_15_198">
<rect width="20.0208" height="20.0208" fill="white" transform="translate(0 14.1567) rotate(-45)"/>
</clipPath>
</defs>
</svg>
