<svg width="27" height="22" viewBox="0 0 27 22" fill="none" xmlns="http://www.w3.org/2000/svg">
<g opacity="0.5">
<path d="M18.1002 18.8893L15.3927 16.1815C14.3457 16.5556 13.2139 16.6249 12.129 16.3813C11.0441 16.1377 10.0508 15.5911 9.26452 14.8053C8.47826 14.0194 7.93145 13.0265 7.68769 11.9422C7.44393 10.8579 7.51325 9.72663 7.8876 8.68013L4.43195 5.22622C1.57349 7.76635 0 10.6536 0 10.6536C0 10.6536 5.03249 19.8752 13.42 19.8752C15.0311 19.8696 16.6239 19.534 18.1002 18.8893ZM8.73976 2.41782C10.2161 1.77302 11.8089 1.43749 13.42 1.43195C21.8075 1.43195 26.84 10.6536 26.84 10.6536C26.84 10.6536 25.2648 13.5391 22.4097 16.0826L18.9507 12.6253C19.325 11.5788 19.3944 10.4476 19.1506 9.36323C18.9068 8.2789 18.36 7.28603 17.5738 6.50018C16.7875 5.71432 15.7942 5.16777 14.7093 4.92414C13.6244 4.6805 12.4926 4.74979 11.4456 5.12394L8.73976 2.4195V2.41782Z" fill="#2B2C43"/>
<path d="M9.26887 10.0601C9.1766 10.7045 9.23573 11.3615 9.44159 11.979C9.64745 12.5966 9.99438 13.1577 10.4549 13.618C10.9154 14.0782 11.4768 14.425 12.0947 14.6307C12.7125 14.8365 13.3698 14.8956 14.0145 14.8034L9.2672 10.0601H9.26887ZM17.5725 11.2472L12.8268 6.50225C13.4715 6.41002 14.1288 6.46913 14.7467 6.67488C15.3645 6.88064 15.926 7.22739 16.3865 7.68767C16.847 8.14794 17.1939 8.70908 17.3997 9.32663C17.6056 9.94418 17.6647 10.6012 17.5725 11.2455V11.2472Z" fill="#2B2C43"/>
<path fill-rule="evenodd" clip-rule="evenodd" d="M22.8917 21.307L2.76172 1.18707L3.94939 0L24.0794 20.1199L22.8917 21.307Z" fill="#2B2C43"/>
</g>
</svg>
