<svg width="28" height="28" viewBox="0 0 28 28" fill="none" xmlns="http://www.w3.org/2000/svg">
<path d="M27.9176 14.2165C27.9206 6.66049 21.8341 0.536463 14.3297 0.533436C6.82022 0.530408 0.733859 6.64953 0.730812 14.2055C0.728059 21.0307 5.69501 26.6918 12.1948 27.7193L12.1986 18.1647L8.74677 18.1633L8.74836 14.2096L12.2002 14.211L12.2014 11.196C12.2028 7.76888 14.2299 5.87706 17.3359 5.87831C18.8236 5.87891 20.3808 6.14625 20.3808 6.14625L20.3794 9.51179L18.6624 9.5111C16.9768 9.51042 16.4496 10.5659 16.4492 11.6473L16.4482 14.2119L20.2178 14.2134L19.6104 18.1668L16.4466 18.1656L16.4427 27.7202C22.9382 26.6979 27.9148 21.0408 27.9176 14.2157L27.9176 14.2165Z" fill="#193FF6"/>
</svg>
