<svg width="38" height="38" viewBox="0 0 38 38" fill="none" xmlns="http://www.w3.org/2000/svg">
<path d="M1.8125 15.8751C1.3981 15.8751 1.00067 15.7104 0.707646 15.4174C0.41462 15.1244 0.25 14.727 0.25 14.3126V1.81567C0.25 1.40127 0.41462 1.00385 0.707646 0.71082C1.00067 0.417794 1.3981 0.253174 1.8125 0.253174H14.3125C14.7269 0.253174 15.1243 0.417794 15.4174 0.71082C15.7104 1.00385 15.875 1.40127 15.875 1.81567V14.3126C15.875 14.727 15.7104 15.1244 15.4174 15.4174C15.1243 15.7104 14.7269 15.8751 14.3125 15.8751H1.8125ZM23.6875 15.8751C23.2731 15.8751 22.8757 15.7104 22.5826 15.4174C22.2896 15.1244 22.125 14.727 22.125 14.3126V1.81567C22.125 1.40127 22.2896 1.00385 22.5826 0.71082C22.8757 0.417794 23.2731 0.253174 23.6875 0.253174H36.1844C36.5988 0.253174 36.9962 0.417794 37.2892 0.71082C37.5823 1.00385 37.7469 1.40127 37.7469 1.81567V14.3126C37.7469 14.727 37.5823 15.1244 37.2892 15.4174C36.9962 15.7104 36.5988 15.8751 36.1844 15.8751H23.6875ZM1.8125 37.7501C1.3981 37.7501 1.00067 37.5854 0.707646 37.2924C0.41462 36.9994 0.25 36.602 0.25 36.1876V23.6876C0.25 23.2732 0.41462 22.8757 0.707646 22.5827C1.00067 22.2897 1.3981 22.1251 1.8125 22.1251H14.3125C14.7269 22.1251 15.1243 22.2897 15.4174 22.5827C15.7104 22.8757 15.875 23.2732 15.875 23.6876V36.1876C15.875 36.602 15.7104 36.9994 15.4174 37.2924C15.1243 37.5854 14.7269 37.7501 14.3125 37.7501H1.8125ZM23.6875 37.7501C23.2731 37.7501 22.8757 37.5854 22.5826 37.2924C22.2896 36.9994 22.125 36.602 22.125 36.1876V23.6876C22.125 23.2732 22.2896 22.8757 22.5826 22.5827C22.8757 22.2897 23.2731 22.1251 23.6875 22.1251H36.1844C36.5988 22.1251 36.9962 22.2897 37.2892 22.5827C37.5823 22.8757 37.7469 23.2732 37.7469 23.6876V36.1876C37.7469 36.602 37.5823 36.9994 37.2892 37.2924C36.9962 37.5854 36.5988 37.7501 36.1844 37.7501H23.6875Z" fill="black"/>
</svg>
