<svg width="18" height="19" viewBox="0 0 18 19" fill="none" xmlns="http://www.w3.org/2000/svg">
<path d="M9.25 5.00879C6.75 5.00879 4.75781 7.04004 4.75781 9.50098C4.75781 12.001 6.75 13.9932 9.25 13.9932C11.7109 13.9932 13.7422 12.001 13.7422 9.50098C13.7422 7.04004 11.7109 5.00879 9.25 5.00879ZM9.25 12.4307C7.64844 12.4307 6.32031 11.1416 6.32031 9.50098C6.32031 7.89941 7.60938 6.61035 9.25 6.61035C10.8516 6.61035 12.1406 7.89941 12.1406 9.50098C12.1406 11.1416 10.8516 12.4307 9.25 12.4307ZM14.9531 4.85254C14.9531 4.2666 14.4844 3.79785 13.8984 3.79785C13.3125 3.79785 12.8438 4.2666 12.8438 4.85254C12.8438 5.43848 13.3125 5.90723 13.8984 5.90723C14.4844 5.90723 14.9531 5.43848 14.9531 4.85254ZM17.9219 5.90723C17.8438 4.50098 17.5312 3.25098 16.5156 2.23535C15.5 1.21973 14.25 0.907227 12.8438 0.829102C11.3984 0.750977 7.0625 0.750977 5.61719 0.829102C4.21094 0.907227 3 1.21973 1.94531 2.23535C0.929688 3.25098 0.617188 4.50098 0.539062 5.90723C0.460938 7.35254 0.460938 11.6885 0.539062 13.1338C0.617188 14.54 0.929688 15.751 1.94531 16.8057C3 17.8213 4.21094 18.1338 5.61719 18.2119C7.0625 18.29 11.3984 18.29 12.8438 18.2119C14.25 18.1338 15.5 17.8213 16.5156 16.8057C17.5312 15.751 17.8438 14.54 17.9219 13.1338C18 11.6885 18 7.35254 17.9219 5.90723ZM16.0469 14.6572C15.7734 15.4385 15.1484 16.0244 14.4062 16.3369C13.2344 16.8057 10.5 16.6885 9.25 16.6885C7.96094 16.6885 5.22656 16.8057 4.09375 16.3369C3.3125 16.0244 2.72656 15.4385 2.41406 14.6572C1.94531 13.5244 2.0625 10.79 2.0625 9.50098C2.0625 8.25098 1.94531 5.5166 2.41406 4.34473C2.72656 3.60254 3.3125 3.0166 4.09375 2.7041C5.22656 2.23535 7.96094 2.35254 9.25 2.35254C10.5 2.35254 13.2344 2.23535 14.4062 2.7041C15.1484 2.97754 15.7344 3.60254 16.0469 4.34473C16.5156 5.5166 16.3984 8.25098 16.3984 9.50098C16.3984 10.79 16.5156 13.5244 16.0469 14.6572Z" fill="white"/>
</svg>
