<svg width="32" height="22" viewBox="0 0 32 22" fill="none" xmlns="http://www.w3.org/2000/svg">
<path d="M0.435841 12.0511L9.9585 21.5647C10.5395 22.1451 11.4818 22.1451 12.0628 21.5647C12.6439 20.9841 12.6439 20.043 12.0628 19.4624L5.08016 12.4865L30.5121 12.4865C31.3338 12.4865 32 11.8209 32 11C32 10.1792 31.3338 9.51353 30.5121 9.51353L5.08016 9.51353L12.0625 2.53761C12.6437 1.95705 12.6437 1.01592 12.0625 0.435362C11.7721 0.145319 11.3912 0 11.0104 0C10.6296 0 10.2488 0.145319 9.95826 0.435362L0.435841 9.94889C-0.145279 10.5295 -0.145279 11.4706 0.435841 12.0511Z" fill="#D4D4D4"/>
</svg>
