<svg width="171" height="143" viewBox="0 0 171 143" fill="none" xmlns="http://www.w3.org/2000/svg">
<path d="M65.291 73.1914V57.5265C65.291 51.08 67.8532 44.8976 72.4138 40.3393C76.9744 35.7809 83.1599 33.2201 89.6096 33.2201V33.2201C96.0593 33.2201 102.245 35.7809 106.805 40.3393C111.366 44.8976 113.928 51.08 113.928 57.5265V73.1907" stroke="#4BAC75" stroke-width="16.4576" stroke-miterlimit="10"/>
<path d="M109.56 68.2756H69.8068C57.0869 68.2756 46.7754 78.5819 46.7754 91.2954V119.676C46.7754 132.39 57.0869 142.696 69.8068 142.696H109.56C122.279 142.696 132.591 132.39 132.591 119.676V91.2954C132.591 78.5819 122.279 68.2756 109.56 68.2756Z" fill="#4BAC75"/>
<path d="M105.458 68.2756H71.3842C57.7932 68.2756 46.7754 79.2878 46.7754 92.8721V118.099C46.7754 131.684 57.7932 142.696 71.3842 142.696H105.458C119.049 142.696 130.067 131.684 130.067 118.099V92.8721C130.067 79.2878 119.049 68.2756 105.458 68.2756Z" fill="#4BAC75"/>
<path d="M101.933 100.701C101.932 98.4662 101.32 96.2739 100.162 94.3619C99.0032 92.45 97.3434 90.8914 95.362 89.8552C93.3806 88.819 91.1532 88.3447 88.9213 88.4837C86.6894 88.6227 84.5381 89.3698 82.7008 90.6438C80.8634 91.9178 79.41 93.6703 78.4982 95.7112C77.5863 97.752 77.2509 100.003 77.5281 102.221C77.8053 104.439 78.6847 106.539 80.0709 108.293C81.4571 110.047 83.2972 111.388 85.3917 112.171L84.9993 120.745C84.9877 120.99 85.0254 121.236 85.1103 121.466C85.1952 121.697 85.3254 121.908 85.4934 122.087C85.6614 122.266 85.8636 122.41 86.0882 122.51C86.3127 122.61 86.555 122.663 86.8007 122.668H93.2855C93.5339 122.668 93.7797 122.617 94.008 122.519C94.2364 122.421 94.4425 122.278 94.6139 122.099C94.7853 121.919 94.9184 121.706 95.0053 121.474C95.0921 121.241 95.1309 120.993 95.1192 120.745L94.6775 111.865C96.8348 110.902 98.6673 109.335 99.9541 107.355C101.241 105.374 101.927 103.064 101.93 100.702L101.933 100.701Z" fill="white"/>
<path d="M6.23186 50.8627L0.528764 49.1631L1.39745 46.3116L7.10054 48.4266L6.93058 41.9304H9.81989L9.63105 48.521L15.2397 46.4438L16.1084 49.3142L10.3109 51.0327L14.05 56.1503L11.7083 57.9255L8.19584 52.4868L4.79664 57.7933L2.43609 56.0748L6.23186 50.8627ZM6.23186 95.8627L0.528764 94.1631L1.39745 91.3116L7.10054 93.4266L6.93058 86.9304H9.81989L9.63105 93.521L15.2397 91.4438L16.1084 94.3142L10.3109 96.0327L14.05 101.15L11.7083 102.925L8.19584 97.4868L4.79664 102.793L2.43609 101.075L6.23186 95.8627Z" fill="#4BAC75"/>
<path d="M146.945 17.4366L141.242 15.737L142.11 12.8855L147.813 15.0005L147.643 8.50429H150.533L150.344 15.095L155.953 13.0177L156.821 15.8881L151.024 17.6066L154.763 22.7243L152.421 24.4994L148.909 19.0607L145.51 24.3672L143.149 22.6487L146.945 17.4366ZM146.945 62.4366L141.242 60.737L142.11 57.8855L147.813 60.0005L147.643 53.5043H150.533L150.344 60.095L155.953 58.0177L156.821 60.8881L151.024 62.6066L154.763 67.7243L152.421 69.4994L148.909 64.0607L145.51 69.3672L143.149 67.6487L146.945 62.4366Z" fill="#4BAC75"/>
</svg>
