<svg width="18" height="19" viewBox="0 0 18 19" fill="none" xmlns="http://www.w3.org/2000/svg">
<path opacity="0.5" d="M16.43 15.4057C16.01 14.4107 15.4004 13.507 14.6353 12.7447C13.8725 11.9803 12.9689 11.3709 11.9743 10.95C11.9654 10.9455 11.9565 10.9433 11.9476 10.9389C13.3349 9.93682 14.2367 8.30462 14.2367 6.46311C14.2367 3.41248 11.765 0.940796 8.71439 0.940796C5.66376 0.940796 3.19208 3.41248 3.19208 6.46311C3.19208 8.30462 4.09391 9.93682 5.48117 10.9411C5.47226 10.9455 5.46335 10.9478 5.45445 10.9522C4.45687 11.3731 3.56172 11.9765 2.79349 12.747C2.02907 13.5098 1.4196 14.4134 0.998741 15.4079C0.585285 16.3816 0.362298 17.4254 0.341853 18.483C0.341258 18.5068 0.345427 18.5305 0.354113 18.5526C0.362798 18.5747 0.375826 18.5949 0.392427 18.6119C0.409028 18.6289 0.428868 18.6424 0.450776 18.6517C0.472684 18.6609 0.496219 18.6656 0.519992 18.6656H1.85604C1.95401 18.6656 2.03195 18.5877 2.03417 18.492C2.07871 16.7729 2.769 15.163 3.98925 13.9427C5.25181 12.6802 6.92855 11.9854 8.71439 11.9854C10.5002 11.9854 12.177 12.6802 13.4395 13.9427C14.6598 15.163 15.3501 16.7729 15.3946 18.492C15.3968 18.5899 15.4748 18.6656 15.5728 18.6656H16.9088C16.9326 18.6656 16.9561 18.6609 16.978 18.6517C16.9999 18.6424 17.0198 18.6289 17.0364 18.6119C17.053 18.5949 17.066 18.5747 17.0747 18.5526C17.0834 18.5305 17.0875 18.5068 17.0869 18.483C17.0647 17.4187 16.8442 16.3832 16.43 15.4057ZM8.71439 10.2931C7.69232 10.2931 6.73037 9.89452 6.00668 9.17083C5.28299 8.44713 4.8844 7.48518 4.8844 6.46311C4.8844 5.44104 5.28299 4.47908 6.00668 3.75539C6.73037 3.0317 7.69232 2.63312 8.71439 2.63312C9.73647 2.63312 10.6984 3.0317 11.4221 3.75539C12.1458 4.47908 12.5444 5.44104 12.5444 6.46311C12.5444 7.48518 12.1458 8.44713 11.4221 9.17083C10.6984 9.89452 9.73647 10.2931 8.71439 10.2931Z" fill="black"/>
</svg>
