<svg width="18" height="18" viewBox="0 0 18 18" fill="none" xmlns="http://www.w3.org/2000/svg">
<g opacity="0.5">
<path d="M1 6.74048C1.00023 6.5904 1.03898 6.44288 1.11253 6.31206C1.18608 6.18123 1.29198 6.07147 1.42008 5.99328L8.89293 1.4259L16.3658 5.99328C16.4939 6.07147 16.5998 6.18123 16.6733 6.31206C16.7469 6.44288 16.7856 6.5904 16.7859 6.74048V15.4578C16.7859 15.6904 16.6935 15.9134 16.529 16.0779C16.3645 16.2424 16.1415 16.3348 15.9089 16.3348H1.87699C1.6444 16.3348 1.42133 16.2424 1.25687 16.0779C1.0924 15.9134 1 15.6904 1 15.4578V6.74048Z" stroke="black" stroke-width="1.75399"/>
<path d="M1 7.1264L8.89293 11.9499L16.7859 7.1264" stroke="black" stroke-width="1.75399" stroke-linecap="round"/>
</g>
</svg>
