<svg width="32" height="22" viewBox="0 0 32 22" fill="none" xmlns="http://www.w3.org/2000/svg">
<path d="M31.5642 9.94886L22.0415 0.435333C21.4605 -0.145111 20.5182 -0.145111 19.9372 0.435333C19.3561 1.0159 19.3561 1.95702 19.9372 2.53758L26.9198 9.5135H1.48792C0.666229 9.5135 0 10.1791 0 11C0 11.8208 0.666229 12.4865 1.48792 12.4865H26.9198L19.9375 19.4624C19.3563 20.0429 19.3563 20.9841 19.9375 21.5646C20.2279 21.8547 20.6088 22 20.9896 22C21.3704 22 21.7512 21.8547 22.0417 21.5646L31.5642 12.0511C32.1453 11.4705 32.1453 10.5294 31.5642 9.94886Z" fill="#BFBFBF"/>
</svg>
