<svg width="31" height="30" viewBox="0 0 31 30" fill="none" xmlns="http://www.w3.org/2000/svg">
<path d="M29.998 10.5639L20.7049 9.19515L16.5505 0.660254C16.4371 0.426573 16.2504 0.237403 16.0198 0.122418C15.4415 -0.166901 14.7388 0.074198 14.4496 0.660254L10.2953 9.19515L1.0021 10.5639C0.745888 10.6009 0.511636 10.7233 0.332287 10.9088C0.115464 11.1347 -0.00401488 11.4385 0.000103019 11.7536C0.00422092 12.0686 0.131599 12.3691 0.354248 12.5891L7.078 19.2323L5.48948 28.6129C5.45223 28.8311 5.47606 29.0555 5.55826 29.2607C5.64047 29.4659 5.77776 29.6436 5.95458 29.7738C6.13139 29.9039 6.34065 29.9812 6.55862 29.997C6.77659 30.0127 6.99456 29.9663 7.18781 29.8629L15.5001 25.4341L23.8123 29.8629C24.0393 29.9853 24.3028 30.0261 24.5554 29.9816C25.1922 29.8703 25.6205 29.2583 25.5107 28.6129L23.9221 19.2323L30.6459 12.5891C30.8289 12.4073 30.9497 12.1699 30.9863 11.9103C31.0851 11.2612 30.6386 10.6603 29.998 10.5639Z" fill="#ECA000"/>
</svg>
