<svg width="20" height="17" viewBox="0 0 20 17" fill="none" xmlns="http://www.w3.org/2000/svg">
<path d="M17.9297 4.43848C18.7109 3.85254 19.4141 3.14941 19.9609 2.3291C19.2578 2.6416 18.4375 2.87598 17.6172 2.9541C18.4766 2.44629 19.1016 1.66504 19.4141 0.688477C18.6328 1.15723 17.7344 1.50879 16.8359 1.7041C16.0547 0.883789 15 0.415039 13.8281 0.415039C11.5625 0.415039 9.72656 2.25098 9.72656 4.5166C9.72656 4.8291 9.76562 5.1416 9.84375 5.4541C6.44531 5.25879 3.39844 3.61816 1.36719 1.15723C1.01562 1.74316 0.820312 2.44629 0.820312 3.22754C0.820312 4.63379 1.52344 5.88379 2.65625 6.62598C1.99219 6.58691 1.32812 6.43066 0.78125 6.11816V6.15723C0.78125 8.14941 2.1875 9.79004 4.0625 10.1807C3.75 10.2588 3.35938 10.3369 3.00781 10.3369C2.73438 10.3369 2.5 10.2979 2.22656 10.2588C2.73438 11.8994 4.25781 13.0713 6.05469 13.1104C4.64844 14.2041 2.89062 14.8682 0.976562 14.8682C0.625 14.8682 0.3125 14.8291 0 14.79C1.79688 15.9619 3.94531 16.626 6.28906 16.626C13.8281 16.626 17.9297 10.415 17.9297 4.98535C17.9297 4.79004 17.9297 4.63379 17.9297 4.43848Z" fill="white"/>
</svg>
