<svg width="41" height="41" viewBox="0 0 41 41" fill="none" xmlns="http://www.w3.org/2000/svg">
<g clip-path="url(#clip0_15_110)">
<path d="M29.6317 23.7163C28.6285 23.5844 27.6391 23.3384 26.6934 22.9858C25.6438 22.5936 24.4507 22.8464 23.6505 23.6357L22.6276 24.6559C20.3309 23.2584 18.3992 21.3308 16.9977 19.0389L18.0221 18.0167C18.8106 17.2199 19.0655 16.0282 18.6713 14.9813C18.3173 14.0349 18.0706 13.0482 17.9381 12.041C17.7365 10.617 16.5065 9.5332 15.0627 9.56667H11.7643C11.6782 9.56667 11.5921 9.57076 11.5074 9.579C10.7407 9.64731 10.0471 10.0109 9.55374 10.6005C9.06039 11.1916 8.82672 11.9385 8.89703 12.7147C9.26739 16.1963 10.4714 19.5897 12.3752 22.5232C14.1053 25.2407 16.4587 27.59 19.177 29.314C22.1064 31.2095 25.4902 32.4116 28.9766 32.7895C29.0654 32.7976 29.1543 32.8011 29.2458 32.8011C30.016 32.7983 30.7382 32.4963 31.2808 31.949C31.8233 31.4036 32.1199 30.6793 32.1172 29.9133V26.6294C32.149 25.1718 31.0843 23.9207 29.6317 23.7163ZM30.7516 26.6232V29.9175C30.753 30.3207 30.5972 30.7006 30.3122 30.9876C30.0273 31.2746 29.6474 31.4331 29.2449 31.4345C29.1957 31.4345 29.1465 31.4324 29.1109 31.4297C25.8501 31.0764 22.6726 29.9475 19.9154 28.1634C17.3605 26.5432 15.1519 24.3388 13.5257 21.7852C11.7346 19.0259 10.6044 15.8403 10.2573 12.5822C10.2204 12.1804 10.3434 11.7882 10.6024 11.4787C10.862 11.1685 11.2269 10.9778 11.6314 10.9416C11.6759 10.9375 11.7202 10.9348 11.7647 10.9348H15.0699C15.074 10.9348 15.0796 10.9348 15.0843 10.9348C15.836 10.9348 16.4796 11.491 16.5856 12.229C16.7311 13.3319 17.0024 14.4197 17.3932 15.4639C17.5996 16.0139 17.4663 16.6392 17.055 17.054L15.6589 18.448C15.4402 18.6653 15.3951 19.0022 15.5475 19.27C17.1732 22.1229 19.5429 24.4879 22.4006 26.1094C22.6678 26.2604 23.0033 26.216 23.2206 25.9987L24.6146 24.6082C25.0341 24.1948 25.6608 24.0595 26.2156 24.2686C27.2591 24.6574 28.349 24.928 29.4484 25.0729C30.2104 25.1802 30.7707 25.8396 30.7515 26.6069C30.7516 26.6116 30.7516 26.6177 30.7516 26.6232Z" fill="white"/>
<path d="M20.5003 0.00195312C9.19672 0.00195312 0.000492444 9.19818 0.000492444 20.5017C0.000492444 24.411 1.1034 28.2007 3.19365 31.4869L0.0421326 40.0831C-0.048755 40.3291 0.0100216 40.6058 0.193158 40.7938C0.324325 40.9291 0.502016 41.0015 0.683791 41.0015C0.756261 41.0015 0.829371 40.9899 0.899759 40.9666L9.81651 37.9949C13.0323 39.9622 16.7188 41.0016 20.5003 41.0016C31.8039 41.0016 41.0001 31.8053 41.0001 20.5018C41.0001 9.19826 31.8038 0.00195312 20.5003 0.00195312ZM20.5009 39.6348C16.8697 39.6348 13.3321 38.6084 10.2715 36.6671C10.1608 36.5975 10.0337 36.5612 9.90524 36.5612C9.83213 36.5612 9.75966 36.5728 9.68927 36.5967L1.81392 39.2214L4.59508 31.6365C4.66955 31.4329 4.64361 31.206 4.52405 31.025C2.45902 27.8974 1.36781 24.2587 1.36781 20.5018C1.36781 9.95194 9.95104 1.36871 20.5009 1.36871C31.0507 1.36871 39.634 9.95194 39.634 20.5018C39.634 31.0516 31.0507 39.6348 20.5009 39.6348Z" fill="white"/>
</g>
<defs>
<clipPath id="clip0_15_110">
<rect width="41" height="41" fill="white" transform="translate(0 0.000976562)"/>
</clipPath>
</defs>
</svg>
